<svg xmlns="http://www.w3.org/2000/svg" viewBox="0 0 168.14 179.143">
  <g id="Group_7" data-name="Group 7" transform="translate(0 0)">
    <g id="Group_6" data-name="Group 6" transform="translate(0 0)">
      <path id="Path_15" data-name="Path 15" d="M161.86,211.512V177.5a1.306,1.306,0,0,1,.783-1.328c2.315-1.226,4.6-2.52,6.912-3.779a.876.876,0,0,1,.817.068c3.609,2.826,7.218,5.72,10.828,8.58,3.473,2.758,6.98,5.55,10.453,8.308,2.383,1.907,4.767,3.814,7.15,5.686a1.675,1.675,0,0,0,2.383,0q6.691-5.312,13.347-10.623c4.733-3.78,9.5-7.593,14.233-11.373,2.826-2.281,5.652-4.562,8.478-6.81a2.682,2.682,0,0,1,.783-.306,2.491,2.491,0,0,1,.272.851v21.962a2.162,2.162,0,0,1-.885,1.771c-2.962,2.349-5.891,4.733-8.853,7.082-2.383,1.907-4.835,3.78-7.219,5.686-2.962,2.384-5.925,4.767-8.887,7.116-2.554,2.043-5.107,4.052-7.627,6.095-1.226.953-2.418,1.941-3.609,2.928-1.09.885-1.26.919-2.349.034-1.941-1.566-3.882-3.133-5.856-4.7-2.962-2.349-5.959-4.733-8.955-7.082-.613-.511-1.226-1.021-1.873-1.5-.783-.545-1.328-.238-1.362.715v38.408a5.5,5.5,0,0,0,0,.749c.034.477-.17.613-.647.613H162.643c-.681,0-.647-.375-.647-.851V211.546A.536.536,0,0,0,161.86,211.512Z" transform="translate(-135.131 -122.405)" fill="#f89e1b"/>
      <path id="Path_16" data-name="Path 16" d="M249.657,211.277V245.53a3.589,3.589,0,0,1-.2.817,2.683,2.683,0,0,1-.783-.306c-2.554-2.043-5.073-4.086-7.627-6.095-2.452-1.941-4.937-3.882-7.355-5.822-2.009-1.6-4.018-3.235-6.027-4.869q-6.538-5.21-13.143-10.419c-.681-.545-1.328-1.09-2.009-1.634a1.49,1.49,0,0,0-2.077-.034c-3.779,3-7.525,6.027-11.3,9.057-2.894,2.315-5.823,4.563-8.683,6.878-3.1,2.486-6.163,5.005-9.261,7.491l-6.333,5.005a9.814,9.814,0,0,1-.919.749c-.545.34-.817.2-.851-.443V223.466a2.051,2.051,0,0,1,.851-1.7c3.439-2.724,6.844-5.448,10.249-8.172,1.941-1.532,3.916-3.064,5.823-4.6,2.52-2.009,5.039-4.052,7.559-6.061,2.418-1.941,4.869-3.848,7.321-5.788,1.668-1.328,3.371-2.656,5.005-4.052,1.464-1.26,1.668-1.26,3.133,0,2.486,2.043,5.005,4.018,7.525,6.027,2.588,2.043,5.141,4.12,7.729,6.163a10.817,10.817,0,0,0,1.26.919c.511.307.919.068.987-.511a4.542,4.542,0,0,0,0-.681c0-12.769-.034-25.537-.034-38.272,0-1.056,0-1.056.885-.545,5.89,3.235,11.747,6.5,17.637,9.738a1.052,1.052,0,0,1,.613,1.09C249.657,188.4,249.657,199.836,249.657,211.277Z" transform="translate(-108.148 -122.544)" fill="#231f20"/>
      <path id="Path_17" data-name="Path 17" d="M154.01,209.015v-8.751a.982.982,0,0,1,.579-1.022q38.816-21.4,77.667-42.834c1.907-1.056,3.813-2.145,5.72-3.167a1.162,1.162,0,0,1,.953,0q8.07,4.443,16.139,8.955a4.943,4.943,0,0,1,.443.306,3.737,3.737,0,0,1-.477.306c-5.38,3-10.76,5.959-16.139,8.955Q196.912,195,154.929,218.277c-.647.34-.783.272-.749-.443.034-2.928,0-5.891,0-8.819Z" transform="translate(-154.01 -153.14)" fill="#231f20"/>
      <path id="Path_18" data-name="Path 18" d="M260.209,200.875v8.512c0,.613-.136.647-.647.375q-13.892-7.712-27.784-15.39-18.233-10.113-36.5-20.191L180.159,165.8a2.844,2.844,0,0,1-.409-.272c.136-.1.272-.238.409-.34,4.8-2.656,9.67-5.278,14.437-8.036a3.383,3.383,0,0,1,3.847-.034q22.422,12.666,44.979,25.231c5.38,3.03,10.794,6.027,16.173,9.023a1.077,1.077,0,0,1,.647,1.124C260.175,195.325,260.209,198.118,260.209,200.875Z" transform="translate(-92.107 -144.966)" fill="#f89e1b"/>
      <path id="Path_19" data-name="Path 19" d="M209.042,165.522v9.125c0,.511-.068.647-.579.341q-9.04-5.056-18.046-10.147a1.225,1.225,0,0,1-.443-.715c-.034-2.622,0-5.244-.034-7.865,0-.375.1-.511.477-.511H208.5c.477,0,.511.2.511.613.034,3.064.034,6.129.034,9.159Z" transform="translate(-67.6 -146.863)" fill="#231f20"/>
    </g>
    <path id="Path_20" data-name="Path 20" d="M205.529,196.113c0,3.916,0,3.916-3.78,5.176-1.192.409-2.383.783-3.575,1.158-.579.17-.817.341-.306.953,1.328,1.566,2.622,3.132,3.813,4.733a7.709,7.709,0,0,0,7.355,3.337c2.656-.238,2.656-.034,2.417-2.724-.443-4.8-.851-9.636-1.294-14.437-.068-.749.136-.919.817-.885,1.907.034,3.814-.034,5.72.068a1.26,1.26,0,0,1,.919.919c.272,5.278.477,10.555.647,15.833.034.953.272,1.192,1.226,1.226a10.5,10.5,0,0,0,9.466-4.256,31.268,31.268,0,0,1,2.826-3.167,5.884,5.884,0,0,1,9.261.919c2.383,3.439,2.486,9.636.2,13.109a5.15,5.15,0,0,1-6.64,2.009,27.164,27.164,0,0,1-4.7-2.724c-.545-.341-.783-.545-1.362,0a11.791,11.791,0,0,1-13.722,1.328,1.928,1.928,0,0,0-1.566-.034c-4.8,2.247-8.853,2.52-12.6-1.464-.477-.511-.851-.647-1.158.068-.919,2.179-2.826,2.724-4.869,2.69-5.925-.068-11.849-.272-17.774-.477-.272,0-.783-.579-.715-.817.477-2.418.987-4.835,1.6-7.253.068-.272.783-.511,1.192-.511,5.176.17,10.385.375,15.561.579a6.807,6.807,0,0,0,.817-.136,3.666,3.666,0,0,0-.409-.817c-1.362-1.6-2.792-3.167-4.154-4.8a2.793,2.793,0,0,1-.681-1.668c-.068-1.941-.068-3.916,0-5.857a1.619,1.619,0,0,1,.817-1.158c4.358-1.737,8.785-3.4,13.177-5.108,1.055-.408,1.43-.034,1.43.988C205.529,194,205.529,195.057,205.529,196.113Zm30.508,16.173a16.194,16.194,0,0,0,1.873-.238,4.582,4.582,0,0,0,1.021-.477c-.306-.306-.545-.715-.885-.885a6.518,6.518,0,0,0-5.176.17c-.17.068-.272.238-.409.375a4.138,4.138,0,0,0,.477.341C234.028,211.844,235.186,212.116,236.037,212.286Z" transform="translate(-100.793 -60.256)" fill="#f89e1b"/>
    <path id="Path_21" data-name="Path 21" d="M190.8,197.886c.068,3.609.068,3.575-3.337,4.7-1.192.375-2.349.919-3.507,1.4a2.873,2.873,0,0,0-.613.511,7.815,7.815,0,0,0,.647.477c.817.511,1.7.954,2.52,1.5,2.418,1.668,2.962,3,2.179,5.857-1.634,6.163-6.129,9.4-11.951,10.9a18.924,18.924,0,0,1-6.64.443c-4.9-.545-7.865-3.916-8.308-8.853s.783-9.6,2.588-14.131a1.163,1.163,0,0,1,1.056-.409c1.6.443,3.133,1.09,4.733,1.532.783.238.715.545.579,1.192a42.967,42.967,0,0,0-1.362,7.116c-.2,3.95,2.179,5.823,6.027,4.9a30.274,30.274,0,0,0,5.21-2.213c.647-.306.613-.579-.034-.953-1.124-.579-2.179-1.26-3.235-1.907a3.277,3.277,0,0,1-1.464-4.12,15.482,15.482,0,0,1,1.5-3.439,19.9,19.9,0,0,1,11.849-8.614c1.328-.375,1.566.136,1.566,1.226C190.8,195.945,190.8,196.933,190.8,197.886Z" transform="translate(-135.508 -55.73)" fill="#231f20"/>
    <path id="Path_22" data-name="Path 22" d="M186.065,206.285c-.136,5.618-3.133,11.407-6.878,16.889-1.294,1.873-1.362,1.907-3.269.681-1.43-.919-2.758-1.975-4.154-2.962-.783-.545-.851-.987-.136-1.8,1.8-1.975,3.439-4.086,5.175-6.129.613-.715.477-.953-.409-1.26-4.869-1.668-6.538-5.346-4.631-10.113a12.322,12.322,0,0,1,4.358-5.72,5.25,5.25,0,0,1,7.559,1.158C185.247,199.033,186.065,201.825,186.065,206.285Zm-6.333-1.8a.125.125,0,0,1,.034-.1,10.521,10.521,0,0,0,1.464-.034c.136,0,.34-.306.306-.375-.477-1.328-4.086-2.349-5.176-1.464a1.044,1.044,0,0,0-.443.783,1.008,1.008,0,0,0,.647.579C177.586,204.106,178.642,204.276,179.731,204.48Z" transform="translate(-113.165 -53.063)" fill="#231f20"/>
    <path id="Path_23" data-name="Path 23" d="M180.587,206.269c-.034,1.362-.409,1.669-1.532,1.839-1.8.238-3.575.715-5.38.987-.375.068-1.09-.272-1.124-.477-.1-.817-.17-2.281.136-2.418a48.045,48.045,0,0,1,6.912-1.839C179.838,204.294,180.587,205.52,180.587,206.269Z" transform="translate(-109.628 -29.961)" fill="#231f20"/>
  </g>
</svg>
